<?xml version="1.0" encoding="UTF-8" standalone="no"?>
<!DOCTYPE svg PUBLIC "-//W3C//DTD SVG 1.1//EN" "http://www.w3.org/Graphics/SVG/1.1/DTD/svg11.dtd">
<svg width="100%" height="100%" viewBox="0 0 5950 3592" version="1.1" xmlns="http://www.w3.org/2000/svg" xmlns:xlink="http://www.w3.org/1999/xlink" xml:space="preserve" xmlns:serif="http://www.serif.com/" style="fill-rule:evenodd;clip-rule:evenodd;stroke-linecap:round;stroke-linejoin:round;stroke-miterlimit:1.5;">
    <g id="Artboard1" transform="matrix(0.848071,0,0,0.72406,0,0)">
        <rect x="0" y="0" width="7015.75" height="4960.63" style="fill:none;"/>
        <clipPath id="_clip1">
            <rect x="0" y="0" width="7015.75" height="4960.63"/>
        </clipPath>
        <g clip-path="url(#_clip1)">
            <g transform="matrix(1.17915,0,0,1.3811,-635.513,1779.12)">
                <g>
                    <g transform="matrix(1.01424,0,0,1.00066,22.3713,5.92552)">
                        <path d="M3064.13,526.83C3064.13,469.783 3018.44,423.468 2962.15,423.468L1000.1,423.468C943.813,423.468 898.118,469.783 898.118,526.83L898.118,2102.4C898.118,2159.45 943.813,2205.76 1000.1,2205.76L2962.15,2205.76C3018.44,2205.76 3064.13,2159.45 3064.13,2102.4L3064.13,526.83Z" style="fill:rgb(254,253,0);stroke:black;stroke-width:3.96px;"/>
                    </g>
                    <g transform="matrix(1.07391,0,0,1.00066,-95.8497,5.92552)">
                        <path d="M3064.13,526.83C3064.13,469.783 3020.98,423.468 2967.82,423.468L994.429,423.468C941.274,423.468 898.118,469.783 898.118,526.83L898.118,2102.4C898.118,2159.45 941.274,2205.76 994.429,2205.76L2967.82,2205.76C3020.98,2205.76 3064.13,2159.45 3064.13,2102.4L3064.13,526.83Z" style="fill:rgb(254,253,0);stroke:black;stroke-width:3.85px;"/>
                    </g>
                    <g transform="matrix(0.881357,0,0,0.881357,268.306,159.863)">
                        <path d="M903.167,1347.43L3099.47,1347.43" style="fill:rgb(254,253,0);stroke:black;stroke-width:4.53px;"/>
                    </g>
                    <g transform="matrix(1,0,0,0.986579,29,24.9549)">
                        <path d="M1034.44,1337.34L1034.44,413.37" style="fill:rgb(254,253,0);stroke:black;stroke-width:4.02px;"/>
                    </g>
                    <g transform="matrix(1,0,0,0.993248,37,21.9951)">
                        <path d="M2963.15,1332.29L2963.15,413.37" style="fill:rgb(254,253,0);stroke:black;stroke-width:4.01px;"/>
                    </g>
                </g>
                <g>
                    <path d="M2705.68,1422.46L2696.55,1422.46L2696.55,1402.15C2696.55,1398.42 2697.53,1395.39 2699.48,1393.05C2700.61,1391.69 2702.03,1390.62 2703.77,1389.82C2705.5,1389.03 2707.28,1388.63 2709.1,1388.63C2712.73,1388.63 2715.79,1389.85 2718.28,1392.29C2720.77,1394.73 2722.02,1397.72 2722.02,1401.27C2722.02,1404.72 2720.78,1407.7 2718.31,1410.21C2715.83,1412.71 2712.9,1413.97 2709.52,1413.97C2708.97,1413.97 2708.15,1413.91 2707.08,1413.8L2707.08,1403.74C2707.83,1404.34 2708.57,1404.64 2709.32,1404.64C2710.27,1404.64 2711.08,1404.29 2711.75,1403.59C2712.43,1402.89 2712.76,1402.06 2712.76,1401.1C2712.76,1400.14 2712.41,1399.32 2711.72,1398.65C2711.02,1397.97 2710.18,1397.63 2709.2,1397.63C2706.86,1397.63 2705.68,1399.25 2705.68,1402.49L2705.68,1422.46Z" style="fill-rule:nonzero;"/>
                    <path d="M2726.02,1389.46L2735.15,1389.46L2735.15,1402.57C2735.15,1403.59 2735.26,1404.3 2735.47,1404.7C2735.68,1405.1 2736.07,1405.3 2736.62,1405.3C2737.64,1405.3 2738.16,1404.39 2738.16,1402.57L2738.16,1389.46L2747.29,1389.46L2747.29,1402.57C2747.29,1403.59 2747.4,1404.3 2747.62,1404.7C2747.84,1405.1 2748.22,1405.3 2748.78,1405.3C2749.78,1405.3 2750.29,1404.39 2750.29,1402.57L2750.29,1389.46L2759.42,1389.46L2759.42,1404.45C2759.42,1407.18 2758.5,1409.5 2756.66,1411.42C2754.82,1413.33 2752.59,1414.29 2749.97,1414.29C2747.27,1414.29 2744.85,1413.15 2742.7,1410.87C2740.32,1413.15 2737.93,1414.29 2735.52,1414.29C2732.48,1414.29 2730.03,1413.18 2728.2,1410.96C2726.75,1409.22 2726.02,1406.71 2726.02,1403.42L2726.02,1389.46Z" style="fill-rule:nonzero;"/>
                    <path d="M2778.12,1388.87L2778.12,1398.64C2777.49,1398.28 2776.91,1398.1 2776.39,1398.1C2774.73,1398.1 2773.9,1399.37 2773.9,1401.91L2773.9,1413.45L2764.77,1413.45L2764.77,1400.15C2764.77,1396.63 2765.73,1393.83 2767.65,1391.74C2769.57,1389.65 2772.13,1388.6 2775.34,1388.6C2776.05,1388.6 2776.98,1388.69 2778.12,1388.87Z" style="fill-rule:nonzero;"/>
                </g>
                <g transform="matrix(1,0,0,1,-159.563,2.14718)">
                    <path d="M2713.67,1389.46L2713.67,1399.08C2712.38,1399.08 2711.5,1399.32 2711.02,1399.8C2710.54,1400.28 2710.23,1401.22 2710.1,1402.64C2709.68,1407.34 2707.86,1410.66 2704.64,1412.6C2702.93,1413.61 2700.5,1414.11 2697.36,1414.11L2696.09,1414.11L2696.09,1404.45L2696.51,1404.45C2697.97,1404.45 2699.02,1404.14 2699.64,1403.53C2700.27,1402.92 2700.63,1401.85 2700.73,1400.32C2700.86,1397.83 2701.09,1396.08 2701.43,1395.07C2701.76,1394.06 2702.44,1393.06 2703.46,1392.07C2705.25,1390.33 2707.74,1389.46 2710.91,1389.46L2713.67,1389.46Z" style="fill-rule:nonzero;"/>
                    <path d="M2724.78,1380.13L2724.78,1389.46L2728.88,1389.46L2728.88,1399.1L2724.78,1399.1C2724.78,1401.04 2725.08,1402.37 2725.69,1403.1C2726.3,1403.84 2727.42,1404.2 2729.05,1404.2L2729.05,1413.8C2728.58,1413.81 2728.23,1413.82 2728,1413.82C2725.93,1413.82 2723.98,1413.34 2722.15,1412.38C2720.32,1411.42 2718.85,1410.12 2717.75,1408.48C2716.35,1406.38 2715.65,1403.59 2715.65,1400.13L2715.65,1380.13L2724.78,1380.13Z" style="fill-rule:nonzero;"/>
                    <path d="M2746.9,1404.32L2746.9,1413.77C2746.15,1413.9 2745.46,1413.97 2744.85,1413.97C2741.18,1413.97 2738.13,1412.76 2735.69,1410.36C2733.25,1407.95 2732.03,1404.93 2732.03,1401.3C2732.03,1397.77 2733.26,1394.77 2735.73,1392.31C2738.19,1389.86 2741.19,1388.63 2744.72,1388.63C2748.66,1388.63 2751.77,1389.78 2754.04,1392.08C2756.31,1394.38 2757.44,1397.53 2757.44,1401.52L2757.44,1413.45L2748.31,1413.45L2748.31,1402.18C2748.31,1400.89 2748,1399.87 2747.37,1399.1C2746.75,1398.34 2745.9,1397.95 2744.85,1397.95C2743.89,1397.95 2743.05,1398.3 2742.36,1399C2741.66,1399.7 2741.3,1400.53 2741.3,1401.49C2741.3,1402.5 2741.62,1403.33 2742.26,1403.98C2742.89,1404.63 2743.7,1404.96 2744.68,1404.96C2745.47,1404.96 2746.21,1404.75 2746.9,1404.32Z" style="fill-rule:nonzero;"/>
                    <path d="M2770.89,1380.13L2770.89,1389.46L2775,1389.46L2775,1399.1L2770.89,1399.1C2770.89,1401.04 2771.2,1402.37 2771.81,1403.1C2772.42,1403.84 2773.54,1404.2 2775.17,1404.2L2775.17,1413.8C2774.7,1413.81 2774.35,1413.82 2774.12,1413.82C2772.05,1413.82 2770.1,1413.34 2768.27,1412.38C2766.44,1411.42 2764.97,1410.12 2763.86,1408.48C2762.46,1406.38 2761.76,1403.59 2761.76,1400.13L2761.76,1380.13L2770.89,1380.13Z" style="fill-rule:nonzero;"/>
                </g>
                <g transform="matrix(0.951807,0,0,1,144.768,3)">
                    <g transform="matrix(1.05063,0,0,1,-145.918,0)">
                        <path d="M2916.01,1375.72L2916.01,1395.66C2916.01,1398.9 2917.17,1400.52 2919.5,1400.52C2920.49,1400.52 2921.33,1400.18 2922.03,1399.51C2922.72,1398.83 2923.06,1398.02 2923.06,1397.06C2923.06,1396.06 2922.74,1395.23 2922.09,1394.55C2921.43,1393.88 2920.64,1393.54 2919.69,1393.54C2919.03,1393.54 2918.26,1393.83 2917.4,1394.42L2917.4,1384.36C2918.47,1384.26 2919.29,1384.21 2919.84,1384.21C2923.27,1384.21 2926.22,1385.45 2928.67,1387.92C2931.12,1390.4 2932.34,1393.38 2932.34,1396.86C2932.34,1400.42 2931.1,1403.43 2928.61,1405.87C2926.12,1408.31 2923.05,1409.53 2919.43,1409.53C2917.6,1409.53 2915.82,1409.13 2914.09,1408.34C2912.36,1407.54 2910.93,1406.46 2909.81,1405.11C2907.85,1402.77 2906.88,1399.73 2906.88,1396.01L2906.88,1375.72L2916.01,1375.72Z" style="fill-rule:nonzero;"/>
                    </g>
                    <g transform="matrix(1.05063,0,0,1,-145.918,0)">
                        <rect x="2936.34" y="1375.72" width="9.131" height="33.325" style="fill-rule:nonzero;"/>
                    </g>
                    <g transform="matrix(1.05063,0,0,1,-145.918,0)">
                        <path d="M2950.82,1385.04L2959.95,1385.04L2959.95,1398.79C2959.95,1400.17 2960.53,1400.87 2961.69,1400.87C2962.83,1400.87 2963.39,1400.17 2963.39,1398.79L2963.39,1385.04L2972.53,1385.04L2972.53,1398.62C2972.53,1401.78 2971.48,1404.44 2969.38,1406.61C2967.28,1408.79 2964.7,1409.87 2961.66,1409.87C2958.2,1409.87 2955.4,1408.61 2953.29,1406.09C2951.64,1404.12 2950.82,1401.39 2950.82,1397.89L2950.82,1385.04Z" style="fill-rule:nonzero;"/>
                    </g>
                </g>
                <g transform="matrix(4.53337,0,0,1,-4299.7,0)">
                    <g transform="matrix(0.220587,0,0,1,923.589,0)">
                        <rect x="1235.49" y="1392.5" width="11.157" height="6.47" style="fill-rule:nonzero;"/>
                    </g>
                    <g transform="matrix(0.220587,0,0,1,923.589,0)">
                        <path d="M1319.03,1391.4C1320.42,1392.83 1321.37,1394.15 1321.89,1395.35C1322.41,1396.56 1322.67,1398.02 1322.67,1399.75C1322.67,1403.05 1321.54,1405.81 1319.29,1408.02C1317.04,1410.24 1314.22,1411.34 1310.86,1411.34C1307.47,1411.34 1304.65,1410.24 1302.4,1408.02C1300.14,1405.81 1299.01,1403.05 1299.01,1399.75C1299.01,1398.07 1299.29,1396.61 1299.83,1395.35C1300.38,1394.1 1301.32,1392.78 1302.65,1391.4C1301.45,1389.8 1300.85,1388.03 1300.85,1386.08C1300.85,1383.26 1301.78,1380.94 1303.65,1379.11C1305.53,1377.27 1307.91,1376.36 1310.81,1376.36C1313.74,1376.36 1316.14,1377.27 1318.02,1379.09C1319.9,1380.92 1320.84,1383.25 1320.84,1386.1C1320.84,1388.02 1320.24,1389.79 1319.03,1391.4ZM1310.73,1383.51C1310,1383.51 1309.37,1383.78 1308.84,1384.32C1308.31,1384.86 1308.05,1385.48 1308.05,1386.2C1308.05,1387.03 1308.31,1387.71 1308.83,1388.25C1309.35,1388.79 1310.02,1389.05 1310.83,1389.05C1311.56,1389.05 1312.19,1388.78 1312.72,1388.22C1313.25,1387.67 1313.52,1387.02 1313.52,1386.27C1313.52,1385.49 1313.25,1384.84 1312.71,1384.31C1312.17,1383.78 1311.51,1383.51 1310.73,1383.51ZM1310.81,1395.94C1309.7,1395.94 1308.75,1396.33 1307.96,1397.1C1307.17,1397.87 1306.78,1398.8 1306.78,1399.89C1306.78,1401.08 1307.16,1402.07 1307.92,1402.86C1308.69,1403.65 1309.65,1404.04 1310.81,1404.04C1311.96,1404.04 1312.92,1403.65 1313.69,1402.86C1314.45,1402.07 1314.84,1401.08 1314.84,1399.89C1314.84,1398.82 1314.44,1397.89 1313.64,1397.11C1312.84,1396.33 1311.9,1395.94 1310.81,1395.94Z" style="fill-rule:nonzero;"/>
                    </g>
                    <g transform="matrix(0.220587,0,0,1,923.589,0)">
                        <path d="M1346.01,1386.17L1334.63,1411.47L1323.4,1386.17L1332.12,1386.17L1334.71,1392.74L1337.54,1386.17L1346.01,1386.17Z" style="fill-rule:nonzero;"/>
                    </g>
                    <g transform="matrix(0.220587,0,0,1,923.589,0)">
                        <path d="M1360.51,1401.38L1360.51,1410.83C1359.77,1410.96 1359.08,1411.03 1358.46,1411.03C1354.8,1411.03 1351.75,1409.82 1349.31,1407.41C1346.87,1405.01 1345.64,1401.99 1345.64,1398.36C1345.64,1394.82 1346.88,1391.83 1349.34,1389.37C1351.81,1386.91 1354.81,1385.68 1358.34,1385.68C1362.28,1385.68 1365.38,1386.84 1367.65,1389.14C1369.92,1391.44 1371.06,1394.59 1371.06,1398.58L1371.06,1410.51L1361.93,1410.51L1361.93,1399.24C1361.93,1397.95 1361.62,1396.92 1360.99,1396.16C1360.36,1395.39 1359.52,1395.01 1358.46,1395.01C1357.5,1395.01 1356.67,1395.36 1355.97,1396.06C1355.27,1396.76 1354.92,1397.59 1354.92,1398.55C1354.92,1399.56 1355.24,1400.39 1355.88,1401.04C1356.51,1401.69 1357.32,1402.02 1358.29,1402.02C1359.09,1402.02 1359.83,1401.81 1360.51,1401.38Z" style="fill-rule:nonzero;"/>
                    </g>
                    <g transform="matrix(0.220587,0,0,1,923.589,0)">
                        <path d="M1438.88,1396.96L1429.95,1396.96L1429.95,1390.08L1438.88,1390.08L1438.88,1380.7L1445.96,1380.7L1445.96,1390.08L1454.9,1390.08L1454.9,1396.96L1445.96,1396.96L1445.96,1406.32L1438.88,1406.32L1438.88,1396.96Z" style="fill-rule:nonzero;"/>
                    </g>
                </g>
                <g>
                    <g transform="matrix(1,0,0,1,757.367,482.941)">
                        <circle cx="375.993" cy="1166.09" r="59.78" style="fill:rgb(89,89,89);stroke:black;stroke-width:3.99px;"/>
                    </g>
                    <g transform="matrix(1,0,0,1,936.367,482.941)">
                        <circle cx="375.993" cy="1166.09" r="59.78" style="fill:rgb(89,89,89);stroke:black;stroke-width:3.99px;"/>
                    </g>
                    <g transform="matrix(1,0,0,1,2020.82,482.941)">
                        <circle cx="375.993" cy="1166.09" r="59.78" style="fill:rgb(89,89,89);stroke:black;stroke-width:3.99px;"/>
                    </g>
                    <g transform="matrix(1,0,0,1,2199.82,482.941)">
                        <circle cx="375.993" cy="1166.09" r="59.78" style="fill:rgb(89,89,89);stroke:black;stroke-width:3.99px;"/>
                    </g>
                    <g transform="matrix(1,0,0,1,2554.81,482.941)">
                        <circle cx="375.993" cy="1166.09" r="59.78" style="fill:rgb(89,89,89);stroke:black;stroke-width:3.99px;"/>
                    </g>
                    <g transform="matrix(1,0,0,1,1308.08,482.941)">
                        <circle cx="375.993" cy="1166.09" r="59.78" style="fill:rgb(89,89,89);stroke:black;stroke-width:3.99px;"/>
                    </g>
                    <g transform="matrix(1,0,0,1,1487.08,482.941)">
                        <circle cx="375.993" cy="1166.09" r="59.78" style="fill:rgb(89,89,89);stroke:black;stroke-width:3.99px;"/>
                    </g>
                    <g transform="matrix(1,0,0,1,1666.08,482.941)">
                        <circle cx="375.993" cy="1166.09" r="59.78" style="fill:rgb(89,89,89);stroke:black;stroke-width:3.99px;"/>
                    </g>
                    <g transform="matrix(1,0,0,1,1030.02,676.509)">
                        <circle cx="375.993" cy="1166.09" r="59.78" style="fill:rgb(218,218,218);stroke:black;stroke-width:3.99px;"/>
                    </g>
                    <g transform="matrix(1,0,0,1,672.583,673.278)">
                        <circle cx="375.993" cy="1166.09" r="59.78" style="fill:rgb(218,218,218);stroke:black;stroke-width:3.99px;"/>
                    </g>
                    <g transform="matrix(1,0,0,1,851.151,673.278)">
                        <circle cx="375.993" cy="1166.09" r="59.78" style="fill:rgb(218,218,218);stroke:black;stroke-width:3.99px;"/>
                    </g>
                    <g transform="matrix(1,0,0,1,1566.27,681.278)">
                        <circle cx="375.993" cy="1166.09" r="59.78" style="fill:rgb(218,218,218);stroke:black;stroke-width:3.99px;"/>
                    </g>
                    <g transform="matrix(1,0,0,1,1208.83,678.046)">
                        <circle cx="375.993" cy="1166.09" r="59.78" style="fill:rgb(218,218,218);stroke:black;stroke-width:3.99px;"/>
                    </g>
                    <g transform="matrix(1,0,0,1,1387.4,678.046)">
                        <circle cx="375.993" cy="1166.09" r="59.78" style="fill:rgb(218,218,218);stroke:black;stroke-width:3.99px;"/>
                    </g>
                    <g transform="matrix(1,0,0,1,2102.68,687.203)">
                        <circle cx="375.993" cy="1166.09" r="59.78" style="fill:rgb(218,218,218);stroke:black;stroke-width:3.99px;"/>
                    </g>
                    <g transform="matrix(1,0,0,1,1745.23,683.972)">
                        <circle cx="375.993" cy="1166.09" r="59.78" style="fill:rgb(218,218,218);stroke:black;stroke-width:3.99px;"/>
                    </g>
                    <g transform="matrix(1,0,0,1,1923.8,683.972)">
                        <circle cx="375.993" cy="1166.09" r="59.78" style="fill:rgb(218,218,218);stroke:black;stroke-width:3.99px;"/>
                    </g>
                    <g transform="matrix(1,0,0,1,2638.92,691.972)">
                        <circle cx="375.993" cy="1166.09" r="59.78" style="fill:rgb(218,218,218);stroke:black;stroke-width:3.99px;"/>
                    </g>
                    <g transform="matrix(1,0,0,1,2281.48,688.74)">
                        <circle cx="375.993" cy="1166.09" r="59.78" style="fill:rgb(218,218,218);stroke:black;stroke-width:3.99px;"/>
                    </g>
                    <g transform="matrix(1,0,0,1,2460.05,688.74)">
                        <circle cx="375.993" cy="1166.09" r="59.78" style="fill:rgb(218,218,218);stroke:black;stroke-width:3.99px;"/>
                    </g>
                </g>
                <g transform="matrix(0.998768,0,0,1,6.92152,0)">
                    <rect x="1060.14" y="431.178" width="1935.58" height="914.472" style="fill:rgb(183,182,0);"/>
                </g>
                <g>
                    <g transform="matrix(0.756235,0,0,0.456892,395.128,250.556)">
                        <rect x="887.944" y="2587.38" width="156.182" height="129.254" style="fill:rgb(62,62,62);stroke:black;stroke-width:6.39px;"/>
                    </g>
                    <g transform="matrix(0.756235,0,0,0.456892,601.935,252.002)">
                        <rect x="887.944" y="2587.38" width="156.182" height="129.254" style="fill:rgb(218,218,218);stroke:black;stroke-width:6.39px;"/>
                    </g>
                </g>
                <g transform="matrix(-1,0,0,1,4070.7,0)">
                    <g transform="matrix(0.756235,0,0,0.456892,395.128,250.556)">
                        <rect x="887.944" y="2587.38" width="156.182" height="129.254" style="fill:rgb(62,62,62);stroke:black;stroke-width:6.39px;"/>
                    </g>
                    <g transform="matrix(0.756235,0,0,0.456892,601.935,252.002)">
                        <rect x="887.944" y="2587.38" width="156.182" height="129.254" style="fill:rgb(218,218,218);stroke:black;stroke-width:6.39px;"/>
                    </g>
                </g>
                <g transform="matrix(0.790775,0,0,0.790775,1693.45,-733.417)">
                    <circle cx="1116.12" cy="2776.95" r="22.404" style="fill:rgb(248,36,0);stroke:black;stroke-width:5.05px;"/>
                </g>
                <g transform="matrix(1.19512,0,0,0.565217,860.934,549.962)">
                    <g transform="matrix(0.836735,0,0,1.76923,114.86,-1983.32)">
                        <path d="M762.568,2710.34L735.176,2710.34L735.176,2649.41C735.176,2638.22 738.106,2629.12 743.965,2622.09C747.334,2618.03 751.619,2614.81 756.819,2612.42C762.019,2610.03 767.354,2608.83 772.822,2608.83C783.711,2608.83 792.891,2612.49 800.361,2619.82C807.832,2627.14 811.568,2636.13 811.568,2646.77C811.568,2657.12 807.857,2666.06 800.435,2673.58C793.013,2681.1 784.224,2684.86 774.068,2684.86C772.407,2684.86 769.966,2684.68 766.743,2684.34L766.743,2654.17C768.989,2655.97 771.235,2656.88 773.482,2656.88C776.314,2656.88 778.743,2655.83 780.769,2653.73C782.796,2651.63 783.809,2649.14 783.809,2646.26C783.809,2643.38 782.759,2640.92 780.659,2638.9C778.56,2636.87 776.045,2635.86 773.115,2635.86C766.084,2635.86 762.568,2640.72 762.568,2650.43L762.568,2710.34Z" style="fill-rule:nonzero;"/>
                    </g>
                    <g transform="matrix(0.836735,0,0,1.76923,114.86,-1983.32)">
                        <path d="M858.223,2608.76C868.574,2608.76 877.449,2612.48 884.846,2619.93C892.244,2627.37 895.943,2636.3 895.943,2646.7C895.943,2657.24 892.195,2666.23 884.7,2673.65C877.205,2681.07 868.159,2684.78 857.564,2684.78C846.968,2684.78 837.91,2681.06 830.391,2673.61C822.871,2666.17 819.111,2657.2 819.111,2646.7C819.111,2636 822.871,2627.01 830.391,2619.71C837.91,2612.41 847.188,2608.76 858.223,2608.76ZM857.49,2635.78C854.561,2635.78 852.07,2636.85 850.02,2638.97C847.969,2641.09 846.943,2643.69 846.943,2646.77C846.943,2649.8 847.981,2652.39 850.056,2654.53C852.131,2656.68 854.61,2657.76 857.49,2657.76C860.42,2657.76 862.923,2656.68 864.998,2654.53C867.073,2652.39 868.11,2649.8 868.11,2646.77C868.11,2643.69 867.085,2641.09 865.034,2638.97C862.984,2636.85 860.469,2635.78 857.49,2635.78Z" style="fill-rule:nonzero;"/>
                    </g>
                    <g transform="matrix(0.836735,0,0,1.76923,114.86,-1983.32)">
                        <path d="M947.432,2609.56L947.432,2638.86C945.527,2637.79 943.794,2637.25 942.232,2637.25C937.251,2637.25 934.761,2641.06 934.761,2648.67L934.761,2683.32L907.368,2683.32L907.368,2643.4C907.368,2632.85 910.249,2624.44 916.011,2618.17C921.773,2611.89 929.463,2608.76 939.082,2608.76C941.231,2608.76 944.014,2609.03 947.432,2609.56Z" style="fill-rule:nonzero;"/>
                    </g>
                    <g transform="matrix(0.836735,0,0,1.76923,114.86,-1983.32)">
                        <path d="M979.878,2583.34L979.878,2611.32L992.183,2611.32L992.183,2640.25L979.878,2640.25C979.878,2646.06 980.794,2650.07 982.625,2652.26C984.456,2654.46 987.813,2655.56 992.695,2655.56L992.695,2684.34C991.279,2684.39 990.23,2684.42 989.546,2684.42C983.345,2684.42 977.498,2682.98 972.005,2680.1C966.511,2677.22 962.105,2673.31 958.784,2668.38C954.585,2662.08 952.485,2653.73 952.485,2643.33L952.485,2583.34L979.878,2583.34Z" style="fill-rule:nonzero;"/>
                    </g>
                    <g transform="matrix(0.836735,0,0,1.76923,114.86,-1983.32)">
                        <path d="M1046.24,2655.93L1046.24,2684.27C1043.99,2684.66 1041.94,2684.86 1040.08,2684.86C1029.1,2684.86 1019.94,2681.24 1012.62,2674.02C1005.29,2666.79 1001.63,2657.73 1001.63,2646.84C1001.63,2636.25 1005.33,2627.26 1012.73,2619.89C1020.13,2612.52 1029.12,2608.83 1039.72,2608.83C1051.53,2608.83 1060.85,2612.28 1067.66,2619.19C1074.47,2626.1 1077.88,2635.54 1077.88,2647.5L1077.88,2683.32L1050.48,2683.32L1050.48,2649.48C1050.48,2645.62 1049.54,2642.55 1047.66,2640.25C1045.78,2637.96 1043.26,2636.81 1040.08,2636.81C1037.2,2636.81 1034.71,2637.86 1032.61,2639.96C1030.51,2642.06 1029.46,2644.55 1029.46,2647.43C1029.46,2650.46 1030.41,2652.95 1032.32,2654.9C1034.22,2656.85 1036.64,2657.83 1039.57,2657.83C1041.96,2657.83 1044.18,2657.2 1046.24,2655.93Z" style="fill-rule:nonzero;"/>
                    </g>
                    <g transform="matrix(0.836735,0,0,1.76923,114.86,-1983.32)">
                        <path d="M1093.84,2683.32L1093.84,2611.25C1093.84,2602.31 1096.55,2595.01 1101.97,2589.35C1107.39,2583.68 1114.42,2580.85 1123.07,2580.85C1133.32,2580.85 1141.21,2585.56 1146.72,2594.99C1150.09,2589.91 1153.71,2586.28 1157.56,2584.11C1161.42,2581.94 1166.18,2580.85 1171.85,2580.85C1180.83,2580.85 1187.71,2583.68 1192.5,2589.35C1197.29,2595.01 1199.68,2603.17 1199.68,2613.81L1199.68,2683.32L1169.94,2683.32L1169.94,2618.28C1169.94,2615.06 1169.68,2612.92 1169.17,2611.87C1168.66,2610.82 1167.62,2610.3 1166.06,2610.3C1163.13,2610.3 1161.66,2612.79 1161.66,2617.77L1161.66,2683.32L1131.93,2683.32L1131.93,2618.28C1131.93,2615.11 1131.66,2612.98 1131.12,2611.91C1130.59,2610.83 1129.54,2610.3 1127.97,2610.3C1125.04,2610.3 1123.58,2612.96 1123.58,2618.28L1123.58,2683.32L1093.84,2683.32Z" style="fill-rule:nonzero;"/>
                    </g>
                    <g transform="matrix(0.836735,0,0,1.76923,114.86,-1983.32)">
                        <path d="M1243.04,2610.3L1243.04,2683.32L1215.64,2683.32L1215.64,2610.3L1243.04,2610.3ZM1229.41,2577.7C1233.13,2577.7 1236.34,2579.01 1239.05,2581.62C1241.76,2584.23 1243.11,2587.32 1243.11,2590.89C1243.11,2594.7 1241.83,2597.82 1239.27,2600.26C1236.7,2602.7 1233.42,2603.92 1229.41,2603.92C1225.41,2603.92 1222.13,2602.7 1219.56,2600.26C1217,2597.82 1215.72,2594.7 1215.72,2590.89C1215.72,2587.32 1217.07,2584.23 1219.78,2581.62C1222.49,2579.01 1225.7,2577.7 1229.41,2577.7Z" style="fill-rule:nonzero;"/>
                    </g>
                    <g transform="matrix(0.836735,0,0,1.76923,114.86,-1983.32)">
                        <path d="M1304.12,2583.34L1331.51,2583.34L1331.51,2644.21C1331.51,2655.39 1328.58,2664.49 1322.73,2671.53C1319.36,2675.58 1315.07,2678.8 1309.87,2681.19C1304.67,2683.59 1299.34,2684.78 1293.87,2684.78C1282.98,2684.78 1273.8,2681.12 1266.33,2673.8C1258.86,2666.47 1255.12,2657.49 1255.12,2646.84C1255.12,2636.54 1258.83,2627.63 1266.26,2620.11C1273.68,2612.59 1282.47,2608.83 1292.62,2608.83C1294.23,2608.83 1296.67,2608.98 1299.95,2609.27L1299.95,2639.45C1297.7,2637.69 1295.45,2636.81 1293.21,2636.81C1290.38,2636.81 1287.95,2637.85 1285.92,2639.92C1283.89,2642 1282.88,2644.5 1282.88,2647.43C1282.88,2650.26 1283.93,2652.69 1286.03,2654.72C1288.13,2656.74 1290.64,2657.76 1293.57,2657.76C1300.61,2657.76 1304.12,2652.9 1304.12,2643.18L1304.12,2583.34Z" style="fill-rule:nonzero;"/>
                    </g>
                </g>
            </g>
            <g transform="matrix(1.17915,0,0,1.3811,-1319.31,-1501.46)">
                <g transform="matrix(0.723257,0,0,0.742784,461.648,308.422)">
                    <path d="M4281,1266.35C4281,1222.29 4244.26,1186.51 4199.01,1186.51L1750.14,1186.51C1704.89,1186.51 1668.15,1222.29 1668.15,1266.35L1668.15,2331.06C1668.15,2375.12 1704.89,2410.89 1750.14,2410.89L4199.01,2410.89C4244.26,2410.89 4281,2375.12 4281,2331.06L4281,1266.35Z" style="fill:white;stroke:black;stroke-width:5.45px;"/>
                </g>
                <g transform="matrix(0.650069,0,0,0.684131,677.737,413.921)">
                    <path d="M4281,1266.35C4281,1222.29 4243.35,1186.51 4196.98,1186.51L1752.17,1186.51C1705.8,1186.51 1668.15,1222.29 1668.15,1266.35L1668.15,2331.06C1668.15,2375.12 1705.8,2410.89 1752.17,2410.89L4196.98,2410.89C4243.35,2410.89 4281,2375.12 4281,2331.06L4281,1266.35Z" style="fill:white;stroke:black;stroke-width:5.98px;"/>
                </g>
                <g transform="matrix(0.0054815,0,0,0.321147,1698.56,1066.97)">
                    <path d="M4281,1203.37C4281,1194.07 3838.41,1186.51 3293.27,1186.51L2655.88,1186.51C2110.74,1186.51 1668.15,1194.07 1668.15,1203.37L1668.15,2394.03C1668.15,2403.34 2110.74,2410.89 2655.88,2410.89L3293.27,2410.89C3838.41,2410.89 4281,2403.34 4281,2394.03L4281,1203.37Z" style="fill:white;stroke:black;stroke-width:17.58px;"/>
                </g>
                <g transform="matrix(0.0054815,0,0,0.321147,3498.02,1066.97)">
                    <path d="M4281,1203.37C4281,1194.07 3838.41,1186.51 3293.27,1186.51L2655.88,1186.51C2110.74,1186.51 1668.15,1194.07 1668.15,1203.37L1668.15,2394.03C1668.15,2403.34 2110.74,2410.89 2655.88,2410.89L3293.27,2410.89C3838.41,2410.89 4281,2403.34 4281,2394.03L4281,1203.37Z" style="fill:white;stroke:black;stroke-width:17.58px;"/>
                </g>
                <g transform="matrix(1.1875,0,0,1.1875,-326.896,-413.277)">
                    <circle cx="1721.9" cy="1958.56" r="12.925" style="fill:white;stroke:black;stroke-width:3.36px;"/>
                </g>
                <g transform="matrix(1,0,0,1,126.023,210.038)">
                    <text x="2335.86px" y="1464.16px" style="font-family:'Bahnschrift', sans-serif;font-size:125px;">Phone</text>
                </g>
            </g>
            <g transform="matrix(1.17915,0,0,1.3811,1039.79,-320.571)">
                <rect x="4104.07" y="1048.37" width="48.47" height="3.231" style="fill:rgb(218,218,218);"/>
            </g>
            <g transform="matrix(4.59467e-17,-0.878882,1.17915,8.4568e-17,-790.992,3486.36)">
                <path d="M1718.18,2240.65L1718.18,2339.76L1484.57,2191.1L1718.18,2042.43L1718.18,2141.54L2225.09,2141.54L2225.09,2240.65L1718.18,2240.65Z"/>
            </g>
            <g transform="matrix(1.17915,0,0,1.3811,2872.14,818.377)">
                <g>
                    <g transform="matrix(1.01424,0,0,1.00066,22.3713,5.92552)">
                        <path d="M3064.13,526.83C3064.13,469.783 3018.44,423.468 2962.15,423.468L1000.1,423.468C943.813,423.468 898.118,469.783 898.118,526.83L898.118,2102.4C898.118,2159.45 943.813,2205.76 1000.1,2205.76L2962.15,2205.76C3018.44,2205.76 3064.13,2159.45 3064.13,2102.4L3064.13,526.83Z" style="fill:rgb(254,253,0);stroke:black;stroke-width:3.96px;"/>
                    </g>
                    <g transform="matrix(1.07391,0,0,1.00066,-95.8497,5.92552)">
                        <path d="M3064.13,526.83C3064.13,469.783 3020.98,423.468 2967.82,423.468L994.429,423.468C941.274,423.468 898.118,469.783 898.118,526.83L898.118,2102.4C898.118,2159.45 941.274,2205.76 994.429,2205.76L2967.82,2205.76C3020.98,2205.76 3064.13,2159.45 3064.13,2102.4L3064.13,526.83Z" style="fill:rgb(254,253,0);stroke:black;stroke-width:3.85px;"/>
                    </g>
                    <g transform="matrix(0.881357,0,0,0.881357,268.306,159.863)">
                        <path d="M903.167,1347.43L3099.47,1347.43" style="fill:rgb(254,253,0);stroke:black;stroke-width:4.53px;"/>
                    </g>
                    <g transform="matrix(1,0,0,0.986579,29,24.9549)">
                        <path d="M1034.44,1337.34L1034.44,413.37" style="fill:rgb(254,253,0);stroke:black;stroke-width:4.02px;"/>
                    </g>
                    <g transform="matrix(1,0,0,0.993248,37,21.9951)">
                        <path d="M2963.15,1332.29L2963.15,413.37" style="fill:rgb(254,253,0);stroke:black;stroke-width:4.01px;"/>
                    </g>
                </g>
                <g>
                    <path d="M2705.68,1422.46L2696.55,1422.46L2696.55,1402.15C2696.55,1398.42 2697.53,1395.39 2699.48,1393.05C2700.61,1391.69 2702.03,1390.62 2703.77,1389.82C2705.5,1389.03 2707.28,1388.63 2709.1,1388.63C2712.73,1388.63 2715.79,1389.85 2718.28,1392.29C2720.77,1394.73 2722.02,1397.72 2722.02,1401.27C2722.02,1404.72 2720.78,1407.7 2718.31,1410.21C2715.83,1412.71 2712.9,1413.97 2709.52,1413.97C2708.97,1413.97 2708.15,1413.91 2707.08,1413.8L2707.08,1403.74C2707.83,1404.34 2708.57,1404.64 2709.32,1404.64C2710.27,1404.64 2711.08,1404.29 2711.75,1403.59C2712.43,1402.89 2712.76,1402.06 2712.76,1401.1C2712.76,1400.14 2712.41,1399.32 2711.72,1398.65C2711.02,1397.97 2710.18,1397.63 2709.2,1397.63C2706.86,1397.63 2705.68,1399.25 2705.68,1402.49L2705.68,1422.46Z" style="fill-rule:nonzero;"/>
                    <path d="M2726.02,1389.46L2735.15,1389.46L2735.15,1402.57C2735.15,1403.59 2735.26,1404.3 2735.47,1404.7C2735.68,1405.1 2736.07,1405.3 2736.62,1405.3C2737.64,1405.3 2738.16,1404.39 2738.16,1402.57L2738.16,1389.46L2747.29,1389.46L2747.29,1402.57C2747.29,1403.59 2747.4,1404.3 2747.62,1404.7C2747.84,1405.1 2748.22,1405.3 2748.78,1405.3C2749.78,1405.3 2750.29,1404.39 2750.29,1402.57L2750.29,1389.46L2759.42,1389.46L2759.42,1404.45C2759.42,1407.18 2758.5,1409.5 2756.66,1411.42C2754.82,1413.33 2752.59,1414.29 2749.97,1414.29C2747.27,1414.29 2744.85,1413.15 2742.7,1410.87C2740.32,1413.15 2737.93,1414.29 2735.52,1414.29C2732.48,1414.29 2730.03,1413.18 2728.2,1410.96C2726.75,1409.22 2726.02,1406.71 2726.02,1403.42L2726.02,1389.46Z" style="fill-rule:nonzero;"/>
                    <path d="M2778.12,1388.87L2778.12,1398.64C2777.49,1398.28 2776.91,1398.1 2776.39,1398.1C2774.73,1398.1 2773.9,1399.37 2773.9,1401.91L2773.9,1413.45L2764.77,1413.45L2764.77,1400.15C2764.77,1396.63 2765.73,1393.83 2767.65,1391.74C2769.57,1389.65 2772.13,1388.6 2775.34,1388.6C2776.05,1388.6 2776.98,1388.69 2778.12,1388.87Z" style="fill-rule:nonzero;"/>
                </g>
                <g transform="matrix(1,0,0,1,-159.563,2.14718)">
                    <path d="M2713.67,1389.46L2713.67,1399.08C2712.38,1399.08 2711.5,1399.32 2711.02,1399.8C2710.54,1400.28 2710.23,1401.22 2710.1,1402.64C2709.68,1407.34 2707.86,1410.66 2704.64,1412.6C2702.93,1413.61 2700.5,1414.11 2697.36,1414.11L2696.09,1414.11L2696.09,1404.45L2696.51,1404.45C2697.97,1404.45 2699.02,1404.14 2699.64,1403.53C2700.27,1402.92 2700.63,1401.85 2700.73,1400.32C2700.86,1397.83 2701.09,1396.08 2701.43,1395.07C2701.76,1394.06 2702.44,1393.06 2703.46,1392.07C2705.25,1390.33 2707.74,1389.46 2710.91,1389.46L2713.67,1389.46Z" style="fill-rule:nonzero;"/>
                    <path d="M2724.78,1380.13L2724.78,1389.46L2728.88,1389.46L2728.88,1399.1L2724.78,1399.1C2724.78,1401.04 2725.08,1402.37 2725.69,1403.1C2726.3,1403.84 2727.42,1404.2 2729.05,1404.2L2729.05,1413.8C2728.58,1413.81 2728.23,1413.82 2728,1413.82C2725.93,1413.82 2723.98,1413.34 2722.15,1412.38C2720.32,1411.42 2718.85,1410.12 2717.75,1408.48C2716.35,1406.38 2715.65,1403.59 2715.65,1400.13L2715.65,1380.13L2724.78,1380.13Z" style="fill-rule:nonzero;"/>
                    <path d="M2746.9,1404.32L2746.9,1413.77C2746.15,1413.9 2745.46,1413.97 2744.85,1413.97C2741.18,1413.97 2738.13,1412.76 2735.69,1410.36C2733.25,1407.95 2732.03,1404.93 2732.03,1401.3C2732.03,1397.77 2733.26,1394.77 2735.73,1392.31C2738.19,1389.86 2741.19,1388.63 2744.72,1388.63C2748.66,1388.63 2751.77,1389.78 2754.04,1392.08C2756.31,1394.38 2757.44,1397.53 2757.44,1401.52L2757.44,1413.45L2748.31,1413.45L2748.31,1402.18C2748.31,1400.89 2748,1399.87 2747.37,1399.1C2746.75,1398.34 2745.9,1397.95 2744.85,1397.95C2743.89,1397.95 2743.05,1398.3 2742.36,1399C2741.66,1399.7 2741.3,1400.53 2741.3,1401.49C2741.3,1402.5 2741.62,1403.33 2742.26,1403.98C2742.89,1404.63 2743.7,1404.96 2744.68,1404.96C2745.47,1404.96 2746.21,1404.75 2746.9,1404.32Z" style="fill-rule:nonzero;"/>
                    <path d="M2770.89,1380.13L2770.89,1389.46L2775,1389.46L2775,1399.1L2770.89,1399.1C2770.89,1401.04 2771.2,1402.37 2771.81,1403.1C2772.42,1403.84 2773.54,1404.2 2775.17,1404.2L2775.17,1413.8C2774.7,1413.81 2774.35,1413.82 2774.12,1413.82C2772.05,1413.82 2770.1,1413.34 2768.27,1412.38C2766.44,1411.42 2764.97,1410.12 2763.86,1408.48C2762.46,1406.38 2761.76,1403.59 2761.76,1400.13L2761.76,1380.13L2770.89,1380.13Z" style="fill-rule:nonzero;"/>
                </g>
                <g transform="matrix(0.951807,0,0,1,144.768,3)">
                    <g transform="matrix(1.05063,0,0,1,-145.918,0)">
                        <path d="M2916.01,1375.72L2916.01,1395.66C2916.01,1398.9 2917.17,1400.52 2919.5,1400.52C2920.49,1400.52 2921.33,1400.18 2922.03,1399.51C2922.72,1398.83 2923.06,1398.02 2923.06,1397.06C2923.06,1396.06 2922.74,1395.23 2922.09,1394.55C2921.43,1393.88 2920.64,1393.54 2919.69,1393.54C2919.03,1393.54 2918.26,1393.83 2917.4,1394.42L2917.4,1384.36C2918.47,1384.26 2919.29,1384.21 2919.84,1384.21C2923.27,1384.21 2926.22,1385.45 2928.67,1387.92C2931.12,1390.4 2932.34,1393.38 2932.34,1396.86C2932.34,1400.42 2931.1,1403.43 2928.61,1405.87C2926.12,1408.31 2923.05,1409.53 2919.43,1409.53C2917.6,1409.53 2915.82,1409.13 2914.09,1408.34C2912.36,1407.54 2910.93,1406.46 2909.81,1405.11C2907.85,1402.77 2906.88,1399.73 2906.88,1396.01L2906.88,1375.72L2916.01,1375.72Z" style="fill-rule:nonzero;"/>
                    </g>
                    <g transform="matrix(1.05063,0,0,1,-145.918,0)">
                        <rect x="2936.34" y="1375.72" width="9.131" height="33.325" style="fill-rule:nonzero;"/>
                    </g>
                    <g transform="matrix(1.05063,0,0,1,-145.918,0)">
                        <path d="M2950.82,1385.04L2959.95,1385.04L2959.95,1398.79C2959.95,1400.17 2960.53,1400.87 2961.69,1400.87C2962.83,1400.87 2963.39,1400.17 2963.39,1398.79L2963.39,1385.04L2972.53,1385.04L2972.53,1398.62C2972.53,1401.78 2971.48,1404.44 2969.38,1406.61C2967.28,1408.79 2964.7,1409.87 2961.66,1409.87C2958.2,1409.87 2955.4,1408.61 2953.29,1406.09C2951.64,1404.12 2950.82,1401.39 2950.82,1397.89L2950.82,1385.04Z" style="fill-rule:nonzero;"/>
                    </g>
                </g>
                <g transform="matrix(4.53337,0,0,1,-4299.7,0)">
                    <g transform="matrix(0.220587,0,0,1,923.589,0)">
                        <rect x="1235.49" y="1392.5" width="11.157" height="6.47" style="fill-rule:nonzero;"/>
                    </g>
                    <g transform="matrix(0.220587,0,0,1,923.589,0)">
                        <path d="M1319.03,1391.4C1320.42,1392.83 1321.37,1394.15 1321.89,1395.35C1322.41,1396.56 1322.67,1398.02 1322.67,1399.75C1322.67,1403.05 1321.54,1405.81 1319.29,1408.02C1317.04,1410.24 1314.22,1411.34 1310.86,1411.34C1307.47,1411.34 1304.65,1410.24 1302.4,1408.02C1300.14,1405.81 1299.01,1403.05 1299.01,1399.75C1299.01,1398.07 1299.29,1396.61 1299.83,1395.35C1300.38,1394.1 1301.32,1392.78 1302.65,1391.4C1301.45,1389.8 1300.85,1388.03 1300.85,1386.08C1300.85,1383.26 1301.78,1380.94 1303.65,1379.11C1305.53,1377.27 1307.91,1376.36 1310.81,1376.36C1313.74,1376.36 1316.14,1377.27 1318.02,1379.09C1319.9,1380.92 1320.84,1383.25 1320.84,1386.1C1320.84,1388.02 1320.24,1389.79 1319.03,1391.4ZM1310.73,1383.51C1310,1383.51 1309.37,1383.78 1308.84,1384.32C1308.31,1384.86 1308.05,1385.48 1308.05,1386.2C1308.05,1387.03 1308.31,1387.71 1308.83,1388.25C1309.35,1388.79 1310.02,1389.05 1310.83,1389.05C1311.56,1389.05 1312.19,1388.78 1312.72,1388.22C1313.25,1387.67 1313.52,1387.02 1313.52,1386.27C1313.52,1385.49 1313.25,1384.84 1312.71,1384.31C1312.17,1383.78 1311.51,1383.51 1310.73,1383.51ZM1310.81,1395.94C1309.7,1395.94 1308.75,1396.33 1307.96,1397.1C1307.17,1397.87 1306.78,1398.8 1306.78,1399.89C1306.78,1401.08 1307.16,1402.07 1307.92,1402.86C1308.69,1403.65 1309.65,1404.04 1310.81,1404.04C1311.96,1404.04 1312.92,1403.65 1313.69,1402.86C1314.45,1402.07 1314.84,1401.08 1314.84,1399.89C1314.84,1398.82 1314.44,1397.89 1313.64,1397.11C1312.84,1396.33 1311.9,1395.94 1310.81,1395.94Z" style="fill-rule:nonzero;"/>
                    </g>
                    <g transform="matrix(0.220587,0,0,1,923.589,0)">
                        <path d="M1346.01,1386.17L1334.63,1411.47L1323.4,1386.17L1332.12,1386.17L1334.71,1392.74L1337.54,1386.17L1346.01,1386.17Z" style="fill-rule:nonzero;"/>
                    </g>
                    <g transform="matrix(0.220587,0,0,1,923.589,0)">
                        <path d="M1360.51,1401.38L1360.51,1410.83C1359.77,1410.96 1359.08,1411.03 1358.46,1411.03C1354.8,1411.03 1351.75,1409.82 1349.31,1407.41C1346.87,1405.01 1345.64,1401.99 1345.64,1398.36C1345.64,1394.82 1346.88,1391.83 1349.34,1389.37C1351.81,1386.91 1354.81,1385.68 1358.34,1385.68C1362.28,1385.68 1365.38,1386.84 1367.65,1389.14C1369.92,1391.44 1371.06,1394.59 1371.06,1398.58L1371.06,1410.51L1361.93,1410.51L1361.93,1399.24C1361.93,1397.95 1361.62,1396.92 1360.99,1396.16C1360.36,1395.39 1359.52,1395.01 1358.46,1395.01C1357.5,1395.01 1356.67,1395.36 1355.97,1396.06C1355.27,1396.76 1354.92,1397.59 1354.92,1398.55C1354.92,1399.56 1355.24,1400.39 1355.88,1401.04C1356.51,1401.69 1357.32,1402.02 1358.29,1402.02C1359.09,1402.02 1359.83,1401.81 1360.51,1401.38Z" style="fill-rule:nonzero;"/>
                    </g>
                    <g transform="matrix(0.220587,0,0,1,923.589,0)">
                        <path d="M1438.88,1396.96L1429.95,1396.96L1429.95,1390.08L1438.88,1390.08L1438.88,1380.7L1445.96,1380.7L1445.96,1390.08L1454.9,1390.08L1454.9,1396.96L1445.96,1396.96L1445.96,1406.32L1438.88,1406.32L1438.88,1396.96Z" style="fill-rule:nonzero;"/>
                    </g>
                </g>
                <g>
                    <g transform="matrix(1,0,0,1,757.367,482.941)">
                        <circle cx="375.993" cy="1166.09" r="59.78" style="fill:rgb(89,89,89);stroke:black;stroke-width:3.99px;"/>
                    </g>
                    <g transform="matrix(1,0,0,1,936.367,482.941)">
                        <circle cx="375.993" cy="1166.09" r="59.78" style="fill:rgb(89,89,89);stroke:black;stroke-width:3.99px;"/>
                    </g>
                    <g transform="matrix(1,0,0,1,2020.82,482.941)">
                        <circle cx="375.993" cy="1166.09" r="59.78" style="fill:rgb(89,89,89);stroke:black;stroke-width:3.99px;"/>
                    </g>
                    <g transform="matrix(1,0,0,1,2199.82,482.941)">
                        <circle cx="375.993" cy="1166.09" r="59.78" style="fill:rgb(89,89,89);stroke:black;stroke-width:3.99px;"/>
                    </g>
                    <g transform="matrix(1,0,0,1,2554.81,482.941)">
                        <circle cx="375.993" cy="1166.09" r="59.78" style="fill:rgb(89,89,89);stroke:black;stroke-width:3.99px;"/>
                    </g>
                    <g transform="matrix(1,0,0,1,1308.08,482.941)">
                        <circle cx="375.993" cy="1166.09" r="59.78" style="fill:rgb(89,89,89);stroke:black;stroke-width:3.99px;"/>
                    </g>
                    <g transform="matrix(1,0,0,1,1487.08,482.941)">
                        <circle cx="375.993" cy="1166.09" r="59.78" style="fill:rgb(89,89,89);stroke:black;stroke-width:3.99px;"/>
                    </g>
                    <g transform="matrix(1,0,0,1,1666.08,482.941)">
                        <circle cx="375.993" cy="1166.09" r="59.78" style="fill:rgb(89,89,89);stroke:black;stroke-width:3.99px;"/>
                    </g>
                    <g transform="matrix(1,0,0,1,1030.02,676.509)">
                        <circle cx="375.993" cy="1166.09" r="59.78" style="fill:rgb(218,218,218);stroke:black;stroke-width:3.99px;"/>
                    </g>
                    <g transform="matrix(1,0,0,1,672.583,673.278)">
                        <circle cx="375.993" cy="1166.09" r="59.78" style="fill:rgb(218,218,218);stroke:black;stroke-width:3.99px;"/>
                    </g>
                    <g transform="matrix(1,0,0,1,851.151,673.278)">
                        <circle cx="375.993" cy="1166.09" r="59.78" style="fill:rgb(218,218,218);stroke:black;stroke-width:3.99px;"/>
                    </g>
                    <g transform="matrix(1,0,0,1,1566.27,681.278)">
                        <circle cx="375.993" cy="1166.09" r="59.78" style="fill:rgb(218,218,218);stroke:black;stroke-width:3.99px;"/>
                    </g>
                    <g transform="matrix(1,0,0,1,1208.83,678.046)">
                        <circle cx="375.993" cy="1166.09" r="59.78" style="fill:rgb(218,218,218);stroke:black;stroke-width:3.99px;"/>
                    </g>
                    <g transform="matrix(1,0,0,1,1387.4,678.046)">
                        <circle cx="375.993" cy="1166.09" r="59.78" style="fill:rgb(218,218,218);stroke:black;stroke-width:3.99px;"/>
                    </g>
                    <g transform="matrix(1,0,0,1,2102.68,687.203)">
                        <circle cx="375.993" cy="1166.09" r="59.78" style="fill:rgb(218,218,218);stroke:black;stroke-width:3.99px;"/>
                    </g>
                    <g transform="matrix(1,0,0,1,1745.23,683.972)">
                        <circle cx="375.993" cy="1166.09" r="59.78" style="fill:rgb(218,218,218);stroke:black;stroke-width:3.99px;"/>
                    </g>
                    <g transform="matrix(1,0,0,1,1923.8,683.972)">
                        <circle cx="375.993" cy="1166.09" r="59.78" style="fill:rgb(218,218,218);stroke:black;stroke-width:3.99px;"/>
                    </g>
                    <g transform="matrix(1,0,0,1,2638.92,691.972)">
                        <circle cx="375.993" cy="1166.09" r="59.78" style="fill:rgb(218,218,218);stroke:black;stroke-width:3.99px;"/>
                    </g>
                    <g transform="matrix(1,0,0,1,2281.48,688.74)">
                        <circle cx="375.993" cy="1166.09" r="59.78" style="fill:rgb(218,218,218);stroke:black;stroke-width:3.99px;"/>
                    </g>
                    <g transform="matrix(1,0,0,1,2460.05,688.74)">
                        <circle cx="375.993" cy="1166.09" r="59.78" style="fill:rgb(218,218,218);stroke:black;stroke-width:3.99px;"/>
                    </g>
                </g>
                <g transform="matrix(0.998768,0,0,1,6.92152,0)">
                    <rect x="1060.14" y="431.178" width="1935.58" height="914.472" style="fill:rgb(183,182,0);"/>
                </g>
                <g>
                    <g transform="matrix(0.756235,0,0,0.456892,395.128,250.556)">
                        <rect x="887.944" y="2587.38" width="156.182" height="129.254" style="fill:rgb(62,62,62);stroke:black;stroke-width:6.39px;"/>
                    </g>
                    <g transform="matrix(0.756235,0,0,0.456892,601.935,252.002)">
                        <rect x="887.944" y="2587.38" width="156.182" height="129.254" style="fill:rgb(218,218,218);stroke:black;stroke-width:6.39px;"/>
                    </g>
                </g>
                <g transform="matrix(-1,0,0,1,4070.7,0)">
                    <g transform="matrix(0.756235,0,0,0.456892,395.128,250.556)">
                        <rect x="887.944" y="2587.38" width="156.182" height="129.254" style="fill:rgb(62,62,62);stroke:black;stroke-width:6.39px;"/>
                    </g>
                    <g transform="matrix(0.756235,0,0,0.456892,601.935,252.002)">
                        <rect x="887.944" y="2587.38" width="156.182" height="129.254" style="fill:rgb(218,218,218);stroke:black;stroke-width:6.39px;"/>
                    </g>
                </g>
                <g transform="matrix(0.790775,0,0,0.790775,1693.45,-733.417)">
                    <circle cx="1116.12" cy="2776.95" r="22.404" style="fill:rgb(248,36,0);stroke:black;stroke-width:5.05px;"/>
                </g>
                <g transform="matrix(1.19512,0,0,0.565217,860.934,549.962)">
                    <g transform="matrix(0.836735,0,0,1.76923,114.86,-1983.32)">
                        <path d="M762.568,2710.34L735.176,2710.34L735.176,2649.41C735.176,2638.22 738.106,2629.12 743.965,2622.09C747.334,2618.03 751.619,2614.81 756.819,2612.42C762.019,2610.03 767.354,2608.83 772.822,2608.83C783.711,2608.83 792.891,2612.49 800.361,2619.82C807.832,2627.14 811.568,2636.13 811.568,2646.77C811.568,2657.12 807.857,2666.06 800.435,2673.58C793.013,2681.1 784.224,2684.86 774.068,2684.86C772.407,2684.86 769.966,2684.68 766.743,2684.34L766.743,2654.17C768.989,2655.97 771.235,2656.88 773.482,2656.88C776.314,2656.88 778.743,2655.83 780.769,2653.73C782.796,2651.63 783.809,2649.14 783.809,2646.26C783.809,2643.38 782.759,2640.92 780.659,2638.9C778.56,2636.87 776.045,2635.86 773.115,2635.86C766.084,2635.86 762.568,2640.72 762.568,2650.43L762.568,2710.34Z" style="fill-rule:nonzero;"/>
                    </g>
                    <g transform="matrix(0.836735,0,0,1.76923,114.86,-1983.32)">
                        <path d="M858.223,2608.76C868.574,2608.76 877.449,2612.48 884.846,2619.93C892.244,2627.37 895.943,2636.3 895.943,2646.7C895.943,2657.24 892.195,2666.23 884.7,2673.65C877.205,2681.07 868.159,2684.78 857.564,2684.78C846.968,2684.78 837.91,2681.06 830.391,2673.61C822.871,2666.17 819.111,2657.2 819.111,2646.7C819.111,2636 822.871,2627.01 830.391,2619.71C837.91,2612.41 847.188,2608.76 858.223,2608.76ZM857.49,2635.78C854.561,2635.78 852.07,2636.85 850.02,2638.97C847.969,2641.09 846.943,2643.69 846.943,2646.77C846.943,2649.8 847.981,2652.39 850.056,2654.53C852.131,2656.68 854.61,2657.76 857.49,2657.76C860.42,2657.76 862.923,2656.68 864.998,2654.53C867.073,2652.39 868.11,2649.8 868.11,2646.77C868.11,2643.69 867.085,2641.09 865.034,2638.97C862.984,2636.85 860.469,2635.78 857.49,2635.78Z" style="fill-rule:nonzero;"/>
                    </g>
                    <g transform="matrix(0.836735,0,0,1.76923,114.86,-1983.32)">
                        <path d="M947.432,2609.56L947.432,2638.86C945.527,2637.79 943.794,2637.25 942.232,2637.25C937.251,2637.25 934.761,2641.06 934.761,2648.67L934.761,2683.32L907.368,2683.32L907.368,2643.4C907.368,2632.85 910.249,2624.44 916.011,2618.17C921.773,2611.89 929.463,2608.76 939.082,2608.76C941.231,2608.76 944.014,2609.03 947.432,2609.56Z" style="fill-rule:nonzero;"/>
                    </g>
                    <g transform="matrix(0.836735,0,0,1.76923,114.86,-1983.32)">
                        <path d="M979.878,2583.34L979.878,2611.32L992.183,2611.32L992.183,2640.25L979.878,2640.25C979.878,2646.06 980.794,2650.07 982.625,2652.26C984.456,2654.46 987.813,2655.56 992.695,2655.56L992.695,2684.34C991.279,2684.39 990.23,2684.42 989.546,2684.42C983.345,2684.42 977.498,2682.98 972.005,2680.1C966.511,2677.22 962.105,2673.31 958.784,2668.38C954.585,2662.08 952.485,2653.73 952.485,2643.33L952.485,2583.34L979.878,2583.34Z" style="fill-rule:nonzero;"/>
                    </g>
                    <g transform="matrix(0.836735,0,0,1.76923,114.86,-1983.32)">
                        <path d="M1046.24,2655.93L1046.24,2684.27C1043.99,2684.66 1041.94,2684.86 1040.08,2684.86C1029.1,2684.86 1019.94,2681.24 1012.62,2674.02C1005.29,2666.79 1001.63,2657.73 1001.63,2646.84C1001.63,2636.25 1005.33,2627.26 1012.73,2619.89C1020.13,2612.52 1029.12,2608.83 1039.72,2608.83C1051.53,2608.83 1060.85,2612.28 1067.66,2619.19C1074.47,2626.1 1077.88,2635.54 1077.88,2647.5L1077.88,2683.32L1050.48,2683.32L1050.48,2649.48C1050.48,2645.62 1049.54,2642.55 1047.66,2640.25C1045.78,2637.96 1043.26,2636.81 1040.08,2636.81C1037.2,2636.81 1034.71,2637.86 1032.61,2639.96C1030.51,2642.06 1029.46,2644.55 1029.46,2647.43C1029.46,2650.46 1030.41,2652.95 1032.32,2654.9C1034.22,2656.85 1036.64,2657.83 1039.57,2657.83C1041.96,2657.83 1044.18,2657.2 1046.24,2655.93Z" style="fill-rule:nonzero;"/>
                    </g>
                    <g transform="matrix(0.836735,0,0,1.76923,114.86,-1983.32)">
                        <path d="M1093.84,2683.32L1093.84,2611.25C1093.84,2602.31 1096.55,2595.01 1101.97,2589.35C1107.39,2583.68 1114.42,2580.85 1123.07,2580.85C1133.32,2580.85 1141.21,2585.56 1146.72,2594.99C1150.09,2589.91 1153.71,2586.28 1157.56,2584.11C1161.42,2581.94 1166.18,2580.85 1171.85,2580.85C1180.83,2580.85 1187.71,2583.68 1192.5,2589.35C1197.29,2595.01 1199.68,2603.17 1199.68,2613.81L1199.68,2683.32L1169.94,2683.32L1169.94,2618.28C1169.94,2615.06 1169.68,2612.92 1169.17,2611.87C1168.66,2610.82 1167.62,2610.3 1166.06,2610.3C1163.13,2610.3 1161.66,2612.79 1161.66,2617.77L1161.66,2683.32L1131.93,2683.32L1131.93,2618.28C1131.93,2615.11 1131.66,2612.98 1131.12,2611.91C1130.59,2610.83 1129.54,2610.3 1127.97,2610.3C1125.04,2610.3 1123.58,2612.96 1123.58,2618.28L1123.58,2683.32L1093.84,2683.32Z" style="fill-rule:nonzero;"/>
                    </g>
                    <g transform="matrix(0.836735,0,0,1.76923,114.86,-1983.32)">
                        <path d="M1243.04,2610.3L1243.04,2683.32L1215.64,2683.32L1215.64,2610.3L1243.04,2610.3ZM1229.41,2577.7C1233.13,2577.7 1236.34,2579.01 1239.05,2581.62C1241.76,2584.23 1243.11,2587.32 1243.11,2590.89C1243.11,2594.7 1241.83,2597.82 1239.27,2600.26C1236.7,2602.7 1233.42,2603.92 1229.41,2603.92C1225.41,2603.92 1222.13,2602.7 1219.56,2600.26C1217,2597.82 1215.72,2594.7 1215.72,2590.89C1215.72,2587.32 1217.07,2584.23 1219.78,2581.62C1222.49,2579.01 1225.7,2577.7 1229.41,2577.7Z" style="fill-rule:nonzero;"/>
                    </g>
                    <g transform="matrix(0.836735,0,0,1.76923,114.86,-1983.32)">
                        <path d="M1304.12,2583.34L1331.51,2583.34L1331.51,2644.21C1331.51,2655.39 1328.58,2664.49 1322.73,2671.53C1319.36,2675.58 1315.07,2678.8 1309.87,2681.19C1304.67,2683.59 1299.34,2684.78 1293.87,2684.78C1282.98,2684.78 1273.8,2681.12 1266.33,2673.8C1258.86,2666.47 1255.12,2657.49 1255.12,2646.84C1255.12,2636.54 1258.83,2627.63 1266.26,2620.11C1273.68,2612.59 1282.47,2608.83 1292.62,2608.83C1294.23,2608.83 1296.67,2608.98 1299.95,2609.27L1299.95,2639.45C1297.7,2637.69 1295.45,2636.81 1293.21,2636.81C1290.38,2636.81 1287.95,2637.85 1285.92,2639.92C1283.89,2642 1282.88,2644.5 1282.88,2647.43C1282.88,2650.26 1283.93,2652.69 1286.03,2654.72C1288.13,2656.74 1290.64,2657.76 1293.57,2657.76C1300.61,2657.76 1304.12,2652.9 1304.12,2643.18L1304.12,2583.34Z" style="fill-rule:nonzero;"/>
                    </g>
                </g>
            </g>
            <g transform="matrix(1.17915,0,0,1.3811,2188.34,-223.052)">
                <g transform="matrix(0.723257,0,0,0.742784,461.648,308.422)">
                    <path d="M4281,1266.35C4281,1222.29 4244.26,1186.51 4199.01,1186.51L1750.14,1186.51C1704.89,1186.51 1668.15,1222.29 1668.15,1266.35L1668.15,2331.06C1668.15,2375.12 1704.89,2410.89 1750.14,2410.89L4199.01,2410.89C4244.26,2410.89 4281,2375.12 4281,2331.06L4281,1266.35Z" style="fill:white;stroke:black;stroke-width:5.45px;"/>
                </g>
                <g transform="matrix(0.650069,0,0,0.684131,677.737,413.921)">
                    <path d="M4281,1266.35C4281,1222.29 4243.35,1186.51 4196.98,1186.51L1752.17,1186.51C1705.8,1186.51 1668.15,1222.29 1668.15,1266.35L1668.15,2331.06C1668.15,2375.12 1705.8,2410.89 1752.17,2410.89L4196.98,2410.89C4243.35,2410.89 4281,2375.12 4281,2331.06L4281,1266.35Z" style="fill:white;stroke:black;stroke-width:5.98px;"/>
                </g>
                <g transform="matrix(0.0054815,0,0,0.321147,1698.56,1066.97)">
                    <path d="M4281,1203.37C4281,1194.07 3838.41,1186.51 3293.27,1186.51L2655.88,1186.51C2110.74,1186.51 1668.15,1194.07 1668.15,1203.37L1668.15,2394.03C1668.15,2403.34 2110.74,2410.89 2655.88,2410.89L3293.27,2410.89C3838.41,2410.89 4281,2403.34 4281,2394.03L4281,1203.37Z" style="fill:white;stroke:black;stroke-width:17.58px;"/>
                </g>
                <g transform="matrix(0.0054815,0,0,0.321147,3498.02,1066.97)">
                    <path d="M4281,1203.37C4281,1194.07 3838.41,1186.51 3293.27,1186.51L2655.88,1186.51C2110.74,1186.51 1668.15,1194.07 1668.15,1203.37L1668.15,2394.03C1668.15,2403.34 2110.74,2410.89 2655.88,2410.89L3293.27,2410.89C3838.41,2410.89 4281,2403.34 4281,2394.03L4281,1203.37Z" style="fill:white;stroke:black;stroke-width:17.58px;"/>
                </g>
                <g transform="matrix(1.1875,0,0,1.1875,-326.896,-413.277)">
                    <circle cx="1721.9" cy="1958.56" r="12.925" style="fill:white;stroke:black;stroke-width:3.36px;"/>
                </g>
                <g transform="matrix(1,0,0,1,126.023,210.038)">
                    <text x="2335.86px" y="1464.16px" style="font-family:'Bahnschrift', sans-serif;font-size:125px;">Phone</text>
                </g>
            </g>
            <g transform="matrix(1.17915,0,0,1.42419,-112.195,-23.2578)">
                <path d="M3080.49,0.323L3080.49,3596.32" style="stroke:black;stroke-width:27.13px;"/>
            </g>
        </g>
    </g>
</svg>
